<?xml version="1.0" standalone="no"?>
<!DOCTYPE svg PUBLIC "-//W3C//DTD SVG 20010904//EN"
 "http://www.w3.org/TR/2001/REC-SVG-20010904/DTD/svg10.dtd">
<svg version="1.0" xmlns="http://www.w3.org/2000/svg"
 width="1280.000000pt" height="640.000000pt" viewBox="0 0 1280.000000 640.000000"
 preserveAspectRatio="xMidYMid meet">
<metadata>
Created by potrace 1.15, written by Peter Selinger 2001-2017
</metadata>
<g transform="translate(0.000000,640.000000) scale(0.100000,-0.100000)"
fill="#f44336" stroke="none">
<path d="M10905 6190 c-246 -17 -465 -56 -629 -112 -101 -34 -277 -121 -372
-184 -107 -70 -276 -235 -332 -322 -127 -198 -148 -381 -64 -557 36 -73 75
-130 251 -360 34 -44 80 -116 102 -160 l40 -80 -68 -7 c-37 -4 -347 -12 -688
-17 -583 -9 -839 -18 -1135 -41 -190 -15 -343 -56 -780 -212 -158 -57 -340
-104 -450 -117 -47 -5 -127 -15 -178 -21 -113 -13 -178 -36 -238 -86 -45 -36
-48 -37 -157 -45 -83 -6 -135 -16 -201 -38 -137 -47 -194 -42 -482 43 -65 20
-225 64 -354 100 -129 35 -446 125 -705 199 -552 159 -548 158 -1220 333
-1040 271 -1333 334 -1820 391 -188 21 -690 25 -835 5 -211 -29 -510 -96 -510
-115 0 -15 60 -67 102 -88 21 -11 95 -35 165 -53 114 -31 1044 -383 2218 -841
460 -179 1407 -557 1403 -560 -7 -7 -632 -173 -1313 -350 -1271 -330 -2084
-552 -2380 -650 -121 -41 -283 -140 -262 -161 9 -9 697 11 1032 31 541 32 893
63 1965 170 889 89 1212 129 1591 194 702 122 936 151 1195 151 97 0 104 -1
104 -20 0 -27 33 -46 126 -74 43 -12 160 -57 259 -99 231 -97 292 -114 445
-127 116 -9 141 -16 345 -85 366 -124 629 -181 1045 -225 402 -42 1138 -49
1435 -13 152 18 233 14 299 -16 l49 -21 -7 -41 c-11 -66 -49 -128 -141 -229
-143 -158 -199 -298 -199 -500 0 -170 46 -312 149 -455 176 -247 596 -424
1190 -501 183 -24 599 -25 746 -1 226 36 464 104 615 177 94 45 106 55 168
129 37 45 101 108 144 142 42 33 90 77 106 97 68 88 126 262 126 379 0 189
-145 396 -445 637 -106 85 -387 268 -480 312 -405 190 -1067 274 -2175 274
-358 0 -945 16 -1130 31 -261 20 -469 61 -611 119 -115 48 -133 62 -152 122
-30 94 -102 174 -284 317 -91 71 -193 175 -193 196 0 19 291 299 371 358 63
46 77 62 88 98 52 172 223 275 581 348 254 53 501 75 1050 96 637 23 897 42
1265 90 694 91 1198 231 1560 432 260 145 425 281 483 397 100 202 72 434 -79
657 -71 105 -145 160 -354 263 -104 52 -209 111 -232 130 -27 24 -43 32 -45
24 -3 -9 -17 -5 -44 14 -78 54 -178 85 -359 113 -122 19 -526 27 -710 15z
m569 -229 c360 -63 578 -199 692 -430 54 -111 68 -173 69 -301 0 -156 -28
-247 -111 -362 -35 -48 -176 -161 -300 -241 -394 -255 -1172 -226 -1600 58
-308 205 -379 507 -200 849 138 263 427 405 916 450 113 10 418 -3 534 -23z
m-7919 -2041 c-3 -5 -12 -10 -18 -10 -7 0 -6 4 3 10 19 12 23 12 15 0z m-140
-60 c-3 -5 -12 -10 -18 -10 -7 0 -6 4 3 10 19 12 23 12 15 0z m-678 -46 c-3
-3 -12 -4 -19 -1 -8 3 -5 6 6 6 11 1 17 -2 13 -5z m8738 -1843 c173 -40 505
-228 617 -350 76 -82 99 -150 105 -312 4 -98 2 -144 -12 -205 -20 -92 -69
-203 -93 -210 -23 -7 -28 -11 -108 -72 -85 -65 -278 -161 -404 -201 -478 -151
-1046 -100 -1443 130 -161 94 -274 196 -319 287 -82 171 24 442 262 665 65 61
104 88 184 127 154 75 359 129 611 160 39 5 169 7 290 5 178 -3 237 -7 310
-24z"/>
</g>
</svg>
